<mxfile host="65bd71144e">
    <diagram id="vGzaCdzUFJ5CH8EzWX1U" name="第 1 页">
        <mxGraphModel dx="2177" dy="1244" grid="1" gridSize="10" guides="1" tooltips="1" connect="1" arrows="1" fold="1" page="1" pageScale="1" pageWidth="827" pageHeight="1169" math="0" shadow="0">
            <root>
                <mxCell id="0"/>
                <mxCell id="1" parent="0"/>
                <mxCell id="126" value="" style="edgeStyle=none;shape=connector;rounded=1;html=1;strokeColor=default;align=center;verticalAlign=middle;fontFamily=Helvetica;fontSize=11;fontColor=default;labelBackgroundColor=default;endArrow=none;endFill=0;" edge="1" parent="1" source="2" target="4">
                    <mxGeometry relative="1" as="geometry"/>
                </mxCell>
                <mxCell id="2" value="&lt;font&gt;&lt;span&gt;角色&lt;/span&gt;&lt;/font&gt;" style="rounded=1;arcSize=10;whiteSpace=wrap;html=1;align=center;fontStyle=1;fontSize=16;" parent="1" vertex="1">
                    <mxGeometry x="-280" y="300" width="100" height="40" as="geometry"/>
                </mxCell>
                <mxCell id="16" style="edgeStyle=none;shape=connector;rounded=1;html=1;strokeColor=default;align=center;verticalAlign=middle;fontFamily=Helvetica;fontSize=16;fontColor=default;labelBackgroundColor=default;endArrow=none;endFill=0;fontStyle=1;" parent="1" source="3" target="69" edge="1">
                    <mxGeometry relative="1" as="geometry">
                        <mxPoint x="120" y="310" as="sourcePoint"/>
                        <mxPoint x="330" y="290" as="targetPoint"/>
                    </mxGeometry>
                </mxCell>
                <mxCell id="17" value="N" style="edgeLabel;html=1;align=center;verticalAlign=middle;resizable=0;points=[];fontFamily=Helvetica;fontSize=16;fontColor=default;labelBackgroundColor=default;fontStyle=1" parent="16" vertex="1" connectable="0">
                    <mxGeometry x="-0.6364" y="2" relative="1" as="geometry">
                        <mxPoint x="-9" y="2" as="offset"/>
                    </mxGeometry>
                </mxCell>
                <mxCell id="3" value="&lt;font&gt;&lt;span&gt;用户&lt;/span&gt;&lt;/font&gt;" style="rounded=1;arcSize=10;whiteSpace=wrap;html=1;align=center;fontStyle=1;fontSize=16;" parent="1" vertex="1">
                    <mxGeometry x="-280" y="500" width="100" height="40" as="geometry"/>
                </mxCell>
                <mxCell id="4" value="属于" style="shape=rhombus;perimeter=rhombusPerimeter;whiteSpace=wrap;html=1;align=center;fontStyle=1;fontSize=16;" parent="1" vertex="1">
                    <mxGeometry x="-290" y="370" width="120" height="60" as="geometry"/>
                </mxCell>
                <mxCell id="5" value="" style="endArrow=none;html=1;rounded=0;fontStyle=1;fontSize=16;" parent="1" source="4" target="2" edge="1">
                    <mxGeometry relative="1" as="geometry">
                        <mxPoint x="300" y="290" as="sourcePoint"/>
                        <mxPoint x="460" y="290" as="targetPoint"/>
                    </mxGeometry>
                </mxCell>
                <mxCell id="6" value="1" style="resizable=0;html=1;whiteSpace=wrap;align=right;verticalAlign=bottom;fontStyle=1;fontSize=16;" parent="5" connectable="0" vertex="1">
                    <mxGeometry x="1" relative="1" as="geometry">
                        <mxPoint x="-3" y="20" as="offset"/>
                    </mxGeometry>
                </mxCell>
                <mxCell id="7" value="" style="endArrow=none;html=1;rounded=0;fontStyle=1;fontSize=16;" parent="1" source="4" target="3" edge="1">
                    <mxGeometry relative="1" as="geometry">
                        <mxPoint x="300" y="290" as="sourcePoint"/>
                        <mxPoint x="230" y="240" as="targetPoint"/>
                    </mxGeometry>
                </mxCell>
                <mxCell id="8" value="N" style="resizable=0;html=1;whiteSpace=wrap;align=right;verticalAlign=bottom;fontStyle=1;fontSize=16;" parent="7" connectable="0" vertex="1">
                    <mxGeometry x="1" relative="1" as="geometry"/>
                </mxCell>
                <mxCell id="13" style="edgeStyle=none;html=1;endArrow=none;endFill=0;fontStyle=1;fontSize=16;" parent="1" source="9" target="10" edge="1">
                    <mxGeometry relative="1" as="geometry"/>
                </mxCell>
                <mxCell id="19" value="M" style="edgeLabel;html=1;align=center;verticalAlign=middle;resizable=0;points=[];fontFamily=Helvetica;fontSize=16;fontColor=default;labelBackgroundColor=default;fontStyle=1" parent="13" vertex="1" connectable="0">
                    <mxGeometry x="0.6182" y="-1" relative="1" as="geometry">
                        <mxPoint y="1" as="offset"/>
                    </mxGeometry>
                </mxCell>
                <mxCell id="9" value="拥有" style="shape=rhombus;perimeter=rhombusPerimeter;whiteSpace=wrap;html=1;align=center;fontStyle=1;fontSize=16;" parent="1" vertex="1">
                    <mxGeometry x="-290" y="210" width="120" height="60" as="geometry"/>
                </mxCell>
                <mxCell id="10" value="&lt;font&gt;&lt;span&gt;菜单&lt;/span&gt;&lt;/font&gt;" style="rounded=1;arcSize=10;whiteSpace=wrap;html=1;align=center;fontStyle=1;fontSize=16;" parent="1" vertex="1">
                    <mxGeometry x="-280" y="140" width="100" height="40" as="geometry"/>
                </mxCell>
                <mxCell id="69" value="管理" style="shape=rhombus;perimeter=rhombusPerimeter;whiteSpace=wrap;html=1;align=center;fontStyle=1;fontSize=16;" vertex="1" parent="1">
                    <mxGeometry x="100" y="490" width="120" height="60" as="geometry"/>
                </mxCell>
                <mxCell id="70" value="投保人" style="rounded=1;arcSize=10;whiteSpace=wrap;html=1;align=center;fontStyle=1;fontSize=16;" vertex="1" parent="1">
                    <mxGeometry x="620" y="500" width="100" height="40" as="geometry"/>
                </mxCell>
                <mxCell id="71" style="edgeStyle=none;html=1;endArrow=none;endFill=0;fontStyle=1;fontSize=16;" edge="1" parent="1" source="69" target="70">
                    <mxGeometry relative="1" as="geometry">
                        <mxPoint x="450" y="230" as="sourcePoint"/>
                        <mxPoint x="600" y="250" as="targetPoint"/>
                    </mxGeometry>
                </mxCell>
                <mxCell id="72" value="M" style="edgeLabel;html=1;align=center;verticalAlign=middle;resizable=0;points=[];fontFamily=Helvetica;fontSize=16;fontColor=default;labelBackgroundColor=default;fontStyle=1" vertex="1" connectable="0" parent="71">
                    <mxGeometry x="0.6182" y="-1" relative="1" as="geometry">
                        <mxPoint x="35" y="-1" as="offset"/>
                    </mxGeometry>
                </mxCell>
                <mxCell id="73" value="诊断" style="rounded=1;arcSize=10;whiteSpace=wrap;html=1;align=center;fontStyle=1;fontSize=16;" vertex="1" parent="1">
                    <mxGeometry x="319" y="380" width="100" height="40" as="geometry"/>
                </mxCell>
                <mxCell id="74" value="疾病" style="rounded=1;arcSize=10;whiteSpace=wrap;html=1;align=center;fontStyle=1;fontSize=16;" vertex="1" parent="1">
                    <mxGeometry x="20" y="380" width="100" height="40" as="geometry"/>
                </mxCell>
                <mxCell id="75" value="药品" style="rounded=1;arcSize=10;whiteSpace=wrap;html=1;align=center;fontStyle=1;fontSize=16;" vertex="1" parent="1">
                    <mxGeometry x="20" y="460" width="100" height="40" as="geometry"/>
                </mxCell>
                <mxCell id="76" value="开药记录" style="rounded=1;arcSize=10;whiteSpace=wrap;html=1;align=center;fontStyle=1;fontSize=16;" vertex="1" parent="1">
                    <mxGeometry x="319" y="460" width="100" height="40" as="geometry"/>
                </mxCell>
                <mxCell id="77" value="药品报销&lt;span style=&quot;font-family: monospace; font-size: 0px; font-weight: 400; text-align: start; text-wrap-mode: nowrap;&quot;&gt;%3CmxGraphModel%3E%3Croot%3E%3CmxCell%20id%3D%220%22%2F%3E%3CmxCell%20id%3D%221%22%20parent%3D%220%22%2F%3E%3CmxCell%20id%3D%222%22%20value%3D%22%E8%8D%AF%E5%93%81%22%20style%3D%22rounded%3D1%3BarcSize%3D10%3BwhiteSpace%3Dwrap%3Bhtml%3D1%3Balign%3Dcenter%3BfontStyle%3D1%3BfontSize%3D16%3B%22%20vertex%3D%221%22%20parent%3D%221%22%3E%3CmxGeometry%20x%3D%22320%22%20y%3D%22570%22%20width%3D%22100%22%20height%3D%2240%22%20as%3D%22geometry%22%2F%3E%3C%2FmxCell%3E%3C%2Froot%3E%3C%2FmxGraphModel%3E&lt;/span&gt;比例" style="rounded=1;arcSize=10;whiteSpace=wrap;html=1;align=center;fontStyle=1;fontSize=16;" vertex="1" parent="1">
                    <mxGeometry x="20" y="220" width="100" height="40" as="geometry"/>
                </mxCell>
                <mxCell id="78" value="医疗服务" style="rounded=1;arcSize=10;whiteSpace=wrap;html=1;align=center;fontStyle=1;fontSize=16;" vertex="1" parent="1">
                    <mxGeometry x="20" y="540" width="100" height="40" as="geometry"/>
                </mxCell>
                <mxCell id="79" value="医疗服务记录" style="rounded=1;arcSize=10;whiteSpace=wrap;html=1;align=center;fontStyle=1;fontSize=16;" vertex="1" parent="1">
                    <mxGeometry x="319" y="540" width="100" height="40" as="geometry"/>
                </mxCell>
                <mxCell id="80" value="诊疗项目" style="rounded=1;arcSize=10;whiteSpace=wrap;html=1;align=center;fontStyle=1;fontSize=16;" vertex="1" parent="1">
                    <mxGeometry x="20" y="620" width="100" height="40" as="geometry"/>
                </mxCell>
                <mxCell id="81" value="诊疗项目记录" style="rounded=1;arcSize=10;whiteSpace=wrap;html=1;align=center;fontStyle=1;fontSize=16;" vertex="1" parent="1">
                    <mxGeometry x="319" y="620" width="100" height="40" as="geometry"/>
                </mxCell>
                <mxCell id="82" value="报销比例" style="rounded=1;arcSize=10;whiteSpace=wrap;html=1;align=center;fontStyle=1;fontSize=16;" vertex="1" parent="1">
                    <mxGeometry x="20" y="300" width="100" height="40" as="geometry"/>
                </mxCell>
                <mxCell id="83" value="报销记录" style="rounded=1;arcSize=10;whiteSpace=wrap;html=1;align=center;fontStyle=1;fontSize=16;" vertex="1" parent="1">
                    <mxGeometry x="620" y="300" width="100" height="40" as="geometry"/>
                </mxCell>
                <mxCell id="91" value="拥有" style="shape=rhombus;perimeter=rhombusPerimeter;whiteSpace=wrap;html=1;align=center;fontStyle=1;fontSize=16;" vertex="1" parent="1">
                    <mxGeometry x="459" y="370" width="120" height="60" as="geometry"/>
                </mxCell>
                <mxCell id="92" style="edgeStyle=none;shape=connector;rounded=1;html=1;strokeColor=default;align=center;verticalAlign=middle;fontFamily=Helvetica;fontSize=16;fontColor=default;labelBackgroundColor=default;endArrow=none;endFill=0;fontStyle=1;entryX=1;entryY=0.5;entryDx=0;entryDy=0;" edge="1" parent="1" source="70" target="91">
                    <mxGeometry relative="1" as="geometry">
                        <mxPoint x="230" y="300" as="sourcePoint"/>
                        <mxPoint x="340" y="300" as="targetPoint"/>
                    </mxGeometry>
                </mxCell>
                <mxCell id="93" value="1" style="edgeLabel;html=1;align=center;verticalAlign=middle;resizable=0;points=[];fontFamily=Helvetica;fontSize=16;fontColor=default;labelBackgroundColor=default;fontStyle=1" vertex="1" connectable="0" parent="92">
                    <mxGeometry x="-0.6364" y="2" relative="1" as="geometry">
                        <mxPoint y="1" as="offset"/>
                    </mxGeometry>
                </mxCell>
                <mxCell id="94" style="edgeStyle=none;html=1;endArrow=none;endFill=0;fontStyle=1;fontSize=16;" edge="1" parent="1" source="91" target="73">
                    <mxGeometry relative="1" as="geometry">
                        <mxPoint x="460" y="300" as="sourcePoint"/>
                        <mxPoint x="570" y="300" as="targetPoint"/>
                    </mxGeometry>
                </mxCell>
                <mxCell id="95" value="M" style="edgeLabel;html=1;align=center;verticalAlign=middle;resizable=0;points=[];fontFamily=Helvetica;fontSize=16;fontColor=default;labelBackgroundColor=default;fontStyle=1" vertex="1" connectable="0" parent="94">
                    <mxGeometry x="0.6182" y="-1" relative="1" as="geometry">
                        <mxPoint x="1" y="1" as="offset"/>
                    </mxGeometry>
                </mxCell>
                <mxCell id="109" value="拥有" style="shape=rhombus;perimeter=rhombusPerimeter;whiteSpace=wrap;html=1;align=center;fontStyle=1;fontSize=16;" vertex="1" parent="1">
                    <mxGeometry x="459" y="450" width="120" height="60" as="geometry"/>
                </mxCell>
                <mxCell id="110" style="edgeStyle=none;shape=connector;rounded=1;html=1;strokeColor=default;align=center;verticalAlign=middle;fontFamily=Helvetica;fontSize=16;fontColor=default;labelBackgroundColor=default;endArrow=none;endFill=0;fontStyle=1;entryX=1;entryY=0.5;entryDx=0;entryDy=0;" edge="1" parent="1" target="109" source="70">
                    <mxGeometry relative="1" as="geometry">
                        <mxPoint x="630" y="470" as="sourcePoint"/>
                        <mxPoint x="350" y="370" as="targetPoint"/>
                    </mxGeometry>
                </mxCell>
                <mxCell id="111" value="1" style="edgeLabel;html=1;align=center;verticalAlign=middle;resizable=0;points=[];fontFamily=Helvetica;fontSize=16;fontColor=default;labelBackgroundColor=default;fontStyle=1" vertex="1" connectable="0" parent="110">
                    <mxGeometry x="-0.6364" y="2" relative="1" as="geometry">
                        <mxPoint y="1" as="offset"/>
                    </mxGeometry>
                </mxCell>
                <mxCell id="112" style="edgeStyle=none;html=1;endArrow=none;endFill=0;fontStyle=1;fontSize=16;" edge="1" parent="1" source="109" target="76">
                    <mxGeometry relative="1" as="geometry">
                        <mxPoint x="470" y="370" as="sourcePoint"/>
                        <mxPoint x="429" y="470" as="targetPoint"/>
                    </mxGeometry>
                </mxCell>
                <mxCell id="113" value="M" style="edgeLabel;html=1;align=center;verticalAlign=middle;resizable=0;points=[];fontFamily=Helvetica;fontSize=16;fontColor=default;labelBackgroundColor=default;fontStyle=1" vertex="1" connectable="0" parent="112">
                    <mxGeometry x="0.6182" y="-1" relative="1" as="geometry">
                        <mxPoint x="1" y="1" as="offset"/>
                    </mxGeometry>
                </mxCell>
                <mxCell id="114" value="拥有" style="shape=rhombus;perimeter=rhombusPerimeter;whiteSpace=wrap;html=1;align=center;fontStyle=1;fontSize=16;" vertex="1" parent="1">
                    <mxGeometry x="459" y="530" width="120" height="60" as="geometry"/>
                </mxCell>
                <mxCell id="115" style="edgeStyle=none;shape=connector;rounded=1;html=1;strokeColor=default;align=center;verticalAlign=middle;fontFamily=Helvetica;fontSize=16;fontColor=default;labelBackgroundColor=default;endArrow=none;endFill=0;fontStyle=1;entryX=1;entryY=0.5;entryDx=0;entryDy=0;" edge="1" parent="1" target="114" source="70">
                    <mxGeometry relative="1" as="geometry">
                        <mxPoint x="630" y="554" as="sourcePoint"/>
                        <mxPoint x="350" y="454" as="targetPoint"/>
                    </mxGeometry>
                </mxCell>
                <mxCell id="116" value="1" style="edgeLabel;html=1;align=center;verticalAlign=middle;resizable=0;points=[];fontFamily=Helvetica;fontSize=16;fontColor=default;labelBackgroundColor=default;fontStyle=1" vertex="1" connectable="0" parent="115">
                    <mxGeometry x="-0.6364" y="2" relative="1" as="geometry">
                        <mxPoint y="1" as="offset"/>
                    </mxGeometry>
                </mxCell>
                <mxCell id="117" style="edgeStyle=none;html=1;endArrow=none;endFill=0;fontStyle=1;fontSize=16;" edge="1" parent="1" source="114" target="79">
                    <mxGeometry relative="1" as="geometry">
                        <mxPoint x="470" y="454" as="sourcePoint"/>
                        <mxPoint x="429" y="554" as="targetPoint"/>
                    </mxGeometry>
                </mxCell>
                <mxCell id="118" value="M" style="edgeLabel;html=1;align=center;verticalAlign=middle;resizable=0;points=[];fontFamily=Helvetica;fontSize=16;fontColor=default;labelBackgroundColor=default;fontStyle=1" vertex="1" connectable="0" parent="117">
                    <mxGeometry x="0.6182" y="-1" relative="1" as="geometry">
                        <mxPoint x="1" y="1" as="offset"/>
                    </mxGeometry>
                </mxCell>
                <mxCell id="119" value="拥有" style="shape=rhombus;perimeter=rhombusPerimeter;whiteSpace=wrap;html=1;align=center;fontStyle=1;fontSize=16;" vertex="1" parent="1">
                    <mxGeometry x="459" y="610" width="120" height="60" as="geometry"/>
                </mxCell>
                <mxCell id="120" style="edgeStyle=none;shape=connector;rounded=1;html=1;strokeColor=default;align=center;verticalAlign=middle;fontFamily=Helvetica;fontSize=16;fontColor=default;labelBackgroundColor=default;endArrow=none;endFill=0;fontStyle=1;entryX=1;entryY=0.5;entryDx=0;entryDy=0;" edge="1" parent="1" target="119" source="70">
                    <mxGeometry relative="1" as="geometry">
                        <mxPoint x="649" y="640" as="sourcePoint"/>
                        <mxPoint x="369" y="540" as="targetPoint"/>
                    </mxGeometry>
                </mxCell>
                <mxCell id="121" value="1" style="edgeLabel;html=1;align=center;verticalAlign=middle;resizable=0;points=[];fontFamily=Helvetica;fontSize=16;fontColor=default;labelBackgroundColor=default;fontStyle=1" vertex="1" connectable="0" parent="120">
                    <mxGeometry x="-0.6364" y="2" relative="1" as="geometry">
                        <mxPoint y="1" as="offset"/>
                    </mxGeometry>
                </mxCell>
                <mxCell id="122" style="edgeStyle=none;html=1;endArrow=none;endFill=0;fontStyle=1;fontSize=16;" edge="1" parent="1" source="119" target="81">
                    <mxGeometry relative="1" as="geometry">
                        <mxPoint x="489" y="540" as="sourcePoint"/>
                        <mxPoint x="448" y="640" as="targetPoint"/>
                    </mxGeometry>
                </mxCell>
                <mxCell id="123" value="M" style="edgeLabel;html=1;align=center;verticalAlign=middle;resizable=0;points=[];fontFamily=Helvetica;fontSize=16;fontColor=default;labelBackgroundColor=default;fontStyle=1" vertex="1" connectable="0" parent="122">
                    <mxGeometry x="0.6182" y="-1" relative="1" as="geometry">
                        <mxPoint x="1" y="1" as="offset"/>
                    </mxGeometry>
                </mxCell>
                <mxCell id="125" value="维护" style="shape=rhombus;perimeter=rhombusPerimeter;whiteSpace=wrap;html=1;align=center;fontStyle=1;fontSize=16;" vertex="1" parent="1">
                    <mxGeometry x="-140" y="370" width="120" height="60" as="geometry"/>
                </mxCell>
                <mxCell id="127" value="" style="endArrow=none;html=1;rounded=0;fontStyle=1;fontSize=16;" edge="1" parent="1" source="9" target="2">
                    <mxGeometry relative="1" as="geometry">
                        <mxPoint x="-100" y="280" as="sourcePoint"/>
                        <mxPoint x="40" y="190" as="targetPoint"/>
                    </mxGeometry>
                </mxCell>
                <mxCell id="128" value="1" style="resizable=0;html=1;whiteSpace=wrap;align=right;verticalAlign=bottom;fontStyle=1;fontSize=16;" connectable="0" vertex="1" parent="127">
                    <mxGeometry x="1" relative="1" as="geometry">
                        <mxPoint x="11" y="3" as="offset"/>
                    </mxGeometry>
                </mxCell>
                <mxCell id="129" value="维护" style="shape=rhombus;perimeter=rhombusPerimeter;whiteSpace=wrap;html=1;align=center;fontStyle=1;fontSize=16;" vertex="1" parent="1">
                    <mxGeometry x="-140" y="450" width="120" height="60" as="geometry"/>
                </mxCell>
                <mxCell id="130" value="维护" style="shape=rhombus;perimeter=rhombusPerimeter;whiteSpace=wrap;html=1;align=center;fontStyle=1;fontSize=16;" vertex="1" parent="1">
                    <mxGeometry x="-140" y="530" width="120" height="60" as="geometry"/>
                </mxCell>
                <mxCell id="131" value="维护" style="shape=rhombus;perimeter=rhombusPerimeter;whiteSpace=wrap;html=1;align=center;fontStyle=1;fontSize=16;" vertex="1" parent="1">
                    <mxGeometry x="-140" y="610" width="120" height="60" as="geometry"/>
                </mxCell>
                <mxCell id="132" value="维护" style="shape=rhombus;perimeter=rhombusPerimeter;whiteSpace=wrap;html=1;align=center;fontStyle=1;fontSize=16;" vertex="1" parent="1">
                    <mxGeometry x="-140" y="290" width="120" height="60" as="geometry"/>
                </mxCell>
                <mxCell id="133" value="维护" style="shape=rhombus;perimeter=rhombusPerimeter;whiteSpace=wrap;html=1;align=center;fontStyle=1;fontSize=16;" vertex="1" parent="1">
                    <mxGeometry x="-140" y="210" width="120" height="60" as="geometry"/>
                </mxCell>
                <mxCell id="134" style="edgeStyle=none;html=1;endArrow=none;endFill=0;fontStyle=1;fontSize=16;" edge="1" parent="1" source="125" target="74">
                    <mxGeometry relative="1" as="geometry">
                        <mxPoint x="469" y="410" as="sourcePoint"/>
                        <mxPoint x="429" y="410" as="targetPoint"/>
                    </mxGeometry>
                </mxCell>
                <mxCell id="135" value="M" style="edgeLabel;html=1;align=center;verticalAlign=middle;resizable=0;points=[];fontFamily=Helvetica;fontSize=16;fontColor=default;labelBackgroundColor=default;fontStyle=1" vertex="1" connectable="0" parent="134">
                    <mxGeometry x="0.6182" y="-1" relative="1" as="geometry">
                        <mxPoint x="1" y="1" as="offset"/>
                    </mxGeometry>
                </mxCell>
                <mxCell id="136" style="edgeStyle=none;html=1;endArrow=none;endFill=0;fontStyle=1;fontSize=16;" edge="1" parent="1" source="129" target="75">
                    <mxGeometry relative="1" as="geometry">
                        <mxPoint x="-10" y="410" as="sourcePoint"/>
                        <mxPoint x="30" y="410" as="targetPoint"/>
                    </mxGeometry>
                </mxCell>
                <mxCell id="137" value="M" style="edgeLabel;html=1;align=center;verticalAlign=middle;resizable=0;points=[];fontFamily=Helvetica;fontSize=16;fontColor=default;labelBackgroundColor=default;fontStyle=1" vertex="1" connectable="0" parent="136">
                    <mxGeometry x="0.6182" y="-1" relative="1" as="geometry">
                        <mxPoint x="1" y="1" as="offset"/>
                    </mxGeometry>
                </mxCell>
                <mxCell id="138" style="edgeStyle=none;html=1;endArrow=none;endFill=0;fontStyle=1;fontSize=16;" edge="1" parent="1" source="130" target="78">
                    <mxGeometry relative="1" as="geometry">
                        <mxPoint y="420" as="sourcePoint"/>
                        <mxPoint x="40" y="420" as="targetPoint"/>
                    </mxGeometry>
                </mxCell>
                <mxCell id="139" value="M" style="edgeLabel;html=1;align=center;verticalAlign=middle;resizable=0;points=[];fontFamily=Helvetica;fontSize=16;fontColor=default;labelBackgroundColor=default;fontStyle=1" vertex="1" connectable="0" parent="138">
                    <mxGeometry x="0.6182" y="-1" relative="1" as="geometry">
                        <mxPoint x="1" y="1" as="offset"/>
                    </mxGeometry>
                </mxCell>
                <mxCell id="140" style="edgeStyle=none;html=1;endArrow=none;endFill=0;fontStyle=1;fontSize=16;" edge="1" parent="1" source="131" target="80">
                    <mxGeometry relative="1" as="geometry">
                        <mxPoint x="10" y="430" as="sourcePoint"/>
                        <mxPoint x="50" y="430" as="targetPoint"/>
                    </mxGeometry>
                </mxCell>
                <mxCell id="141" value="M" style="edgeLabel;html=1;align=center;verticalAlign=middle;resizable=0;points=[];fontFamily=Helvetica;fontSize=16;fontColor=default;labelBackgroundColor=default;fontStyle=1" vertex="1" connectable="0" parent="140">
                    <mxGeometry x="0.6182" y="-1" relative="1" as="geometry">
                        <mxPoint x="1" y="1" as="offset"/>
                    </mxGeometry>
                </mxCell>
                <mxCell id="142" style="edgeStyle=none;html=1;endArrow=none;endFill=0;fontStyle=1;fontSize=16;" edge="1" parent="1" source="132" target="82">
                    <mxGeometry relative="1" as="geometry">
                        <mxPoint x="20" y="440" as="sourcePoint"/>
                        <mxPoint x="60" y="440" as="targetPoint"/>
                    </mxGeometry>
                </mxCell>
                <mxCell id="143" value="M" style="edgeLabel;html=1;align=center;verticalAlign=middle;resizable=0;points=[];fontFamily=Helvetica;fontSize=16;fontColor=default;labelBackgroundColor=default;fontStyle=1" vertex="1" connectable="0" parent="142">
                    <mxGeometry x="0.6182" y="-1" relative="1" as="geometry">
                        <mxPoint x="1" y="1" as="offset"/>
                    </mxGeometry>
                </mxCell>
                <mxCell id="144" style="edgeStyle=none;html=1;endArrow=none;endFill=0;fontStyle=1;fontSize=16;" edge="1" parent="1" source="133" target="77">
                    <mxGeometry relative="1" as="geometry">
                        <mxPoint x="30" y="450" as="sourcePoint"/>
                        <mxPoint x="70" y="450" as="targetPoint"/>
                    </mxGeometry>
                </mxCell>
                <mxCell id="145" value="M" style="edgeLabel;html=1;align=center;verticalAlign=middle;resizable=0;points=[];fontFamily=Helvetica;fontSize=16;fontColor=default;labelBackgroundColor=default;fontStyle=1" vertex="1" connectable="0" parent="144">
                    <mxGeometry x="0.6182" y="-1" relative="1" as="geometry">
                        <mxPoint x="1" y="1" as="offset"/>
                    </mxGeometry>
                </mxCell>
                <mxCell id="146" style="edgeStyle=none;shape=connector;rounded=1;html=1;strokeColor=default;align=center;verticalAlign=middle;fontFamily=Helvetica;fontSize=16;fontColor=default;labelBackgroundColor=default;endArrow=none;endFill=0;fontStyle=1;entryX=0;entryY=0.5;entryDx=0;entryDy=0;" edge="1" parent="1" source="3" target="125">
                    <mxGeometry relative="1" as="geometry">
                        <mxPoint x="56" y="300" as="sourcePoint"/>
                        <mxPoint x="-20" y="200" as="targetPoint"/>
                    </mxGeometry>
                </mxCell>
                <mxCell id="147" value="1" style="edgeLabel;html=1;align=center;verticalAlign=middle;resizable=0;points=[];fontFamily=Helvetica;fontSize=16;fontColor=default;labelBackgroundColor=default;fontStyle=1" vertex="1" connectable="0" parent="146">
                    <mxGeometry x="-0.6364" y="2" relative="1" as="geometry">
                        <mxPoint y="1" as="offset"/>
                    </mxGeometry>
                </mxCell>
                <mxCell id="148" style="edgeStyle=none;shape=connector;rounded=1;html=1;strokeColor=default;align=center;verticalAlign=middle;fontFamily=Helvetica;fontSize=16;fontColor=default;labelBackgroundColor=default;endArrow=none;endFill=0;fontStyle=1;entryX=0;entryY=0.5;entryDx=0;entryDy=0;" edge="1" parent="1" source="3" target="129">
                    <mxGeometry relative="1" as="geometry">
                        <mxPoint x="-205" y="510" as="sourcePoint"/>
                        <mxPoint x="-130" y="410" as="targetPoint"/>
                    </mxGeometry>
                </mxCell>
                <mxCell id="149" value="1" style="edgeLabel;html=1;align=center;verticalAlign=middle;resizable=0;points=[];fontFamily=Helvetica;fontSize=16;fontColor=default;labelBackgroundColor=default;fontStyle=1" vertex="1" connectable="0" parent="148">
                    <mxGeometry x="-0.6364" y="2" relative="1" as="geometry">
                        <mxPoint y="1" as="offset"/>
                    </mxGeometry>
                </mxCell>
                <mxCell id="150" style="edgeStyle=none;shape=connector;rounded=1;html=1;strokeColor=default;align=center;verticalAlign=middle;fontFamily=Helvetica;fontSize=16;fontColor=default;labelBackgroundColor=default;endArrow=none;endFill=0;fontStyle=1;entryX=0;entryY=0.5;entryDx=0;entryDy=0;" edge="1" parent="1" source="3" target="130">
                    <mxGeometry relative="1" as="geometry">
                        <mxPoint x="-175" y="510" as="sourcePoint"/>
                        <mxPoint x="-130" y="490" as="targetPoint"/>
                    </mxGeometry>
                </mxCell>
                <mxCell id="151" value="1" style="edgeLabel;html=1;align=center;verticalAlign=middle;resizable=0;points=[];fontFamily=Helvetica;fontSize=16;fontColor=default;labelBackgroundColor=default;fontStyle=1" vertex="1" connectable="0" parent="150">
                    <mxGeometry x="-0.6364" y="2" relative="1" as="geometry">
                        <mxPoint y="1" as="offset"/>
                    </mxGeometry>
                </mxCell>
                <mxCell id="152" style="edgeStyle=none;shape=connector;rounded=1;html=1;strokeColor=default;align=center;verticalAlign=middle;fontFamily=Helvetica;fontSize=16;fontColor=default;labelBackgroundColor=default;endArrow=none;endFill=0;fontStyle=1;entryX=0;entryY=0.5;entryDx=0;entryDy=0;" edge="1" parent="1" source="3" target="131">
                    <mxGeometry relative="1" as="geometry">
                        <mxPoint x="-175" y="550" as="sourcePoint"/>
                        <mxPoint x="-130" y="570" as="targetPoint"/>
                    </mxGeometry>
                </mxCell>
                <mxCell id="153" value="1" style="edgeLabel;html=1;align=center;verticalAlign=middle;resizable=0;points=[];fontFamily=Helvetica;fontSize=16;fontColor=default;labelBackgroundColor=default;fontStyle=1" vertex="1" connectable="0" parent="152">
                    <mxGeometry x="-0.6364" y="2" relative="1" as="geometry">
                        <mxPoint y="1" as="offset"/>
                    </mxGeometry>
                </mxCell>
                <mxCell id="154" style="edgeStyle=none;shape=connector;rounded=1;html=1;strokeColor=default;align=center;verticalAlign=middle;fontFamily=Helvetica;fontSize=16;fontColor=default;labelBackgroundColor=default;endArrow=none;endFill=0;fontStyle=1;entryX=0;entryY=0.5;entryDx=0;entryDy=0;" edge="1" parent="1" source="3" target="132">
                    <mxGeometry relative="1" as="geometry">
                        <mxPoint x="-205" y="550" as="sourcePoint"/>
                        <mxPoint x="-130" y="650" as="targetPoint"/>
                    </mxGeometry>
                </mxCell>
                <mxCell id="155" value="1" style="edgeLabel;html=1;align=center;verticalAlign=middle;resizable=0;points=[];fontFamily=Helvetica;fontSize=16;fontColor=default;labelBackgroundColor=default;fontStyle=1" vertex="1" connectable="0" parent="154">
                    <mxGeometry x="-0.6364" y="2" relative="1" as="geometry">
                        <mxPoint y="1" as="offset"/>
                    </mxGeometry>
                </mxCell>
                <mxCell id="156" style="edgeStyle=none;shape=connector;rounded=1;html=1;strokeColor=default;align=center;verticalAlign=middle;fontFamily=Helvetica;fontSize=16;fontColor=default;labelBackgroundColor=default;endArrow=none;endFill=0;fontStyle=1;entryX=0;entryY=0.5;entryDx=0;entryDy=0;" edge="1" parent="1" source="3" target="133">
                    <mxGeometry relative="1" as="geometry">
                        <mxPoint x="-211" y="550" as="sourcePoint"/>
                        <mxPoint x="-130" y="730" as="targetPoint"/>
                    </mxGeometry>
                </mxCell>
                <mxCell id="157" value="1" style="edgeLabel;html=1;align=center;verticalAlign=middle;resizable=0;points=[];fontFamily=Helvetica;fontSize=16;fontColor=default;labelBackgroundColor=default;fontStyle=1" vertex="1" connectable="0" parent="156">
                    <mxGeometry x="-0.6364" y="2" relative="1" as="geometry">
                        <mxPoint y="1" as="offset"/>
                    </mxGeometry>
                </mxCell>
                <mxCell id="158" value="来自" style="shape=rhombus;perimeter=rhombusPerimeter;whiteSpace=wrap;html=1;align=center;fontStyle=1;fontSize=16;" vertex="1" parent="1">
                    <mxGeometry x="160" y="370" width="120" height="60" as="geometry"/>
                </mxCell>
                <mxCell id="159" value="来自" style="shape=rhombus;perimeter=rhombusPerimeter;whiteSpace=wrap;html=1;align=center;fontStyle=1;fontSize=16;" vertex="1" parent="1">
                    <mxGeometry x="160" y="450" width="120" height="60" as="geometry"/>
                </mxCell>
                <mxCell id="160" value="来自" style="shape=rhombus;perimeter=rhombusPerimeter;whiteSpace=wrap;html=1;align=center;fontStyle=1;fontSize=16;" vertex="1" parent="1">
                    <mxGeometry x="160" y="530" width="120" height="60" as="geometry"/>
                </mxCell>
                <mxCell id="161" value="来自" style="shape=rhombus;perimeter=rhombusPerimeter;whiteSpace=wrap;html=1;align=center;fontStyle=1;fontSize=16;" vertex="1" parent="1">
                    <mxGeometry x="160" y="610" width="120" height="60" as="geometry"/>
                </mxCell>
                <mxCell id="162" style="edgeStyle=none;shape=connector;rounded=1;html=1;strokeColor=default;align=center;verticalAlign=middle;fontFamily=Helvetica;fontSize=16;fontColor=default;labelBackgroundColor=default;endArrow=none;endFill=0;fontStyle=1;" edge="1" parent="1" source="74" target="158">
                    <mxGeometry relative="1" as="geometry">
                        <mxPoint x="160" y="210" as="sourcePoint"/>
                        <mxPoint x="235" y="110" as="targetPoint"/>
                    </mxGeometry>
                </mxCell>
                <mxCell id="163" value="1" style="edgeLabel;html=1;align=center;verticalAlign=middle;resizable=0;points=[];fontFamily=Helvetica;fontSize=16;fontColor=default;labelBackgroundColor=default;fontStyle=1" vertex="1" connectable="0" parent="162">
                    <mxGeometry x="-0.6364" y="2" relative="1" as="geometry">
                        <mxPoint y="1" as="offset"/>
                    </mxGeometry>
                </mxCell>
                <mxCell id="164" style="edgeStyle=none;shape=connector;rounded=1;html=1;strokeColor=default;align=center;verticalAlign=middle;fontFamily=Helvetica;fontSize=16;fontColor=default;labelBackgroundColor=default;endArrow=none;endFill=0;fontStyle=1;" edge="1" parent="1" source="75" target="159">
                    <mxGeometry relative="1" as="geometry">
                        <mxPoint x="130" y="410" as="sourcePoint"/>
                        <mxPoint x="170" y="410" as="targetPoint"/>
                    </mxGeometry>
                </mxCell>
                <mxCell id="165" value="1" style="edgeLabel;html=1;align=center;verticalAlign=middle;resizable=0;points=[];fontFamily=Helvetica;fontSize=16;fontColor=default;labelBackgroundColor=default;fontStyle=1" vertex="1" connectable="0" parent="164">
                    <mxGeometry x="-0.6364" y="2" relative="1" as="geometry">
                        <mxPoint y="1" as="offset"/>
                    </mxGeometry>
                </mxCell>
                <mxCell id="166" style="edgeStyle=none;shape=connector;rounded=1;html=1;strokeColor=default;align=center;verticalAlign=middle;fontFamily=Helvetica;fontSize=16;fontColor=default;labelBackgroundColor=default;endArrow=none;endFill=0;fontStyle=1;" edge="1" parent="1" source="78" target="160">
                    <mxGeometry relative="1" as="geometry">
                        <mxPoint x="130" y="490" as="sourcePoint"/>
                        <mxPoint x="170" y="490" as="targetPoint"/>
                    </mxGeometry>
                </mxCell>
                <mxCell id="167" value="1" style="edgeLabel;html=1;align=center;verticalAlign=middle;resizable=0;points=[];fontFamily=Helvetica;fontSize=16;fontColor=default;labelBackgroundColor=default;fontStyle=1" vertex="1" connectable="0" parent="166">
                    <mxGeometry x="-0.6364" y="2" relative="1" as="geometry">
                        <mxPoint y="1" as="offset"/>
                    </mxGeometry>
                </mxCell>
                <mxCell id="168" style="edgeStyle=none;shape=connector;rounded=1;html=1;strokeColor=default;align=center;verticalAlign=middle;fontFamily=Helvetica;fontSize=16;fontColor=default;labelBackgroundColor=default;endArrow=none;endFill=0;fontStyle=1;" edge="1" parent="1" source="80" target="161">
                    <mxGeometry relative="1" as="geometry">
                        <mxPoint x="130" y="570" as="sourcePoint"/>
                        <mxPoint x="170" y="570" as="targetPoint"/>
                    </mxGeometry>
                </mxCell>
                <mxCell id="169" value="1" style="edgeLabel;html=1;align=center;verticalAlign=middle;resizable=0;points=[];fontFamily=Helvetica;fontSize=16;fontColor=default;labelBackgroundColor=default;fontStyle=1" vertex="1" connectable="0" parent="168">
                    <mxGeometry x="-0.6364" y="2" relative="1" as="geometry">
                        <mxPoint y="1" as="offset"/>
                    </mxGeometry>
                </mxCell>
                <mxCell id="170" style="edgeStyle=none;shape=connector;rounded=1;html=1;strokeColor=default;align=center;verticalAlign=middle;fontFamily=Helvetica;fontSize=16;fontColor=default;labelBackgroundColor=default;endArrow=none;endFill=0;fontStyle=1;" edge="1" parent="1" source="73" target="158">
                    <mxGeometry relative="1" as="geometry">
                        <mxPoint x="140" y="580" as="sourcePoint"/>
                        <mxPoint x="180" y="580" as="targetPoint"/>
                    </mxGeometry>
                </mxCell>
                <mxCell id="171" value="1" style="edgeLabel;html=1;align=center;verticalAlign=middle;resizable=0;points=[];fontFamily=Helvetica;fontSize=16;fontColor=default;labelBackgroundColor=default;fontStyle=1" vertex="1" connectable="0" parent="170">
                    <mxGeometry x="-0.6364" y="2" relative="1" as="geometry">
                        <mxPoint y="1" as="offset"/>
                    </mxGeometry>
                </mxCell>
                <mxCell id="174" style="edgeStyle=none;shape=connector;rounded=1;html=1;strokeColor=default;align=center;verticalAlign=middle;fontFamily=Helvetica;fontSize=16;fontColor=default;labelBackgroundColor=default;endArrow=none;endFill=0;fontStyle=1;" edge="1" parent="1" source="76" target="159">
                    <mxGeometry relative="1" as="geometry">
                        <mxPoint x="329" y="410" as="sourcePoint"/>
                        <mxPoint x="250" y="465" as="targetPoint"/>
                    </mxGeometry>
                </mxCell>
                <mxCell id="175" value="1" style="edgeLabel;html=1;align=center;verticalAlign=middle;resizable=0;points=[];fontFamily=Helvetica;fontSize=16;fontColor=default;labelBackgroundColor=default;fontStyle=1" vertex="1" connectable="0" parent="174">
                    <mxGeometry x="-0.6364" y="2" relative="1" as="geometry">
                        <mxPoint y="1" as="offset"/>
                    </mxGeometry>
                </mxCell>
                <mxCell id="178" style="edgeStyle=none;shape=connector;rounded=1;html=1;strokeColor=default;align=center;verticalAlign=middle;fontFamily=Helvetica;fontSize=16;fontColor=default;labelBackgroundColor=default;endArrow=none;endFill=0;fontStyle=1;" edge="1" parent="1" source="79" target="160">
                    <mxGeometry relative="1" as="geometry">
                        <mxPoint x="339" y="500" as="sourcePoint"/>
                        <mxPoint x="300" y="500" as="targetPoint"/>
                    </mxGeometry>
                </mxCell>
                <mxCell id="179" value="1" style="edgeLabel;html=1;align=center;verticalAlign=middle;resizable=0;points=[];fontFamily=Helvetica;fontSize=16;fontColor=default;labelBackgroundColor=default;fontStyle=1" vertex="1" connectable="0" parent="178">
                    <mxGeometry x="-0.6364" y="2" relative="1" as="geometry">
                        <mxPoint y="1" as="offset"/>
                    </mxGeometry>
                </mxCell>
                <mxCell id="180" style="edgeStyle=none;shape=connector;rounded=1;html=1;strokeColor=default;align=center;verticalAlign=middle;fontFamily=Helvetica;fontSize=16;fontColor=default;labelBackgroundColor=default;endArrow=none;endFill=0;fontStyle=1;" edge="1" parent="1" source="81" target="161">
                    <mxGeometry relative="1" as="geometry">
                        <mxPoint x="329" y="570" as="sourcePoint"/>
                        <mxPoint x="290" y="570" as="targetPoint"/>
                    </mxGeometry>
                </mxCell>
                <mxCell id="181" value="1" style="edgeLabel;html=1;align=center;verticalAlign=middle;resizable=0;points=[];fontFamily=Helvetica;fontSize=16;fontColor=default;labelBackgroundColor=default;fontStyle=1" vertex="1" connectable="0" parent="180">
                    <mxGeometry x="-0.6364" y="2" relative="1" as="geometry">
                        <mxPoint y="1" as="offset"/>
                    </mxGeometry>
                </mxCell>
                <mxCell id="182" value="拥有" style="shape=rhombus;perimeter=rhombusPerimeter;whiteSpace=wrap;html=1;align=center;fontStyle=1;fontSize=16;" vertex="1" parent="1">
                    <mxGeometry x="610" y="370" width="120" height="60" as="geometry"/>
                </mxCell>
                <mxCell id="184" style="edgeStyle=none;shape=connector;rounded=1;html=1;strokeColor=default;align=center;verticalAlign=middle;fontFamily=Helvetica;fontSize=16;fontColor=default;labelBackgroundColor=default;endArrow=none;endFill=0;fontStyle=1;" edge="1" parent="1" source="70" target="182">
                    <mxGeometry relative="1" as="geometry">
                        <mxPoint x="665" y="510" as="sourcePoint"/>
                        <mxPoint x="589" y="410" as="targetPoint"/>
                    </mxGeometry>
                </mxCell>
                <mxCell id="185" value="1" style="edgeLabel;html=1;align=center;verticalAlign=middle;resizable=0;points=[];fontFamily=Helvetica;fontSize=16;fontColor=default;labelBackgroundColor=default;fontStyle=1" vertex="1" connectable="0" parent="184">
                    <mxGeometry x="-0.6364" y="2" relative="1" as="geometry">
                        <mxPoint y="1" as="offset"/>
                    </mxGeometry>
                </mxCell>
                <mxCell id="186" style="edgeStyle=none;shape=connector;rounded=1;html=1;strokeColor=default;align=center;verticalAlign=middle;fontFamily=Helvetica;fontSize=16;fontColor=default;labelBackgroundColor=default;endArrow=none;endFill=0;fontStyle=1;" edge="1" parent="1" source="83" target="182">
                    <mxGeometry relative="1" as="geometry">
                        <mxPoint x="680" y="510" as="sourcePoint"/>
                        <mxPoint x="680" y="440" as="targetPoint"/>
                    </mxGeometry>
                </mxCell>
                <mxCell id="187" value="N" style="edgeLabel;html=1;align=center;verticalAlign=middle;resizable=0;points=[];fontFamily=Helvetica;fontSize=16;fontColor=default;labelBackgroundColor=default;fontStyle=1" vertex="1" connectable="0" parent="186">
                    <mxGeometry x="-0.6364" y="2" relative="1" as="geometry">
                        <mxPoint x="3" y="3" as="offset"/>
                    </mxGeometry>
                </mxCell>
            </root>
        </mxGraphModel>
    </diagram>
</mxfile>